<svg xmlns="http://www.w3.org/2000/svg" viewBox="0 0 2500 550
">
    <path
        d="M 368.4 18.3 L 283 99 L 414 228 L 493.6 143.6 C 515.5 121.7 515.5 86.3 493.6 64.4 L 447.6 18.3 C 425.7 -3.6 390.3 -3.6 368.4 18.3 Z"
        fill="var(--background-alt)" />
    <path
        d="M 208 256 C 181.5 256 160 277.5 160 304 C 160 311.4 161.7 318.4 164.7 324.7 L 11.1 478.2 C 2.8 469.7 0 457.1 3.8 445.8 L 92.4 181.6 C 99 161.8 114.8 146.6 134.7 140.6 L 278.8 97.4 L 288 94.6 L 352.7 159.3 L 241.937 270.063 C 233.25 261.375 221.25 256 208 256 Z"
        fill="#f9b72a" />
    <path
        d="M 417.4 224 L 414.6 233.2 L 371.4 377.3 C 365.4 397.2 350.1 413 330.4 419.6 L 66.1 508.2 C 54.8 512.1 42.3 509.2 33.7 500.9 L 187.3 347.3 C 193.6 350.3 200.6 352 208 352 C 234.5 352 256 330.5 256 304 C 256 290.75 250.625 278.75 241.937 270.062 L 352.7 159.3 Z"
        fill="#f19938" />

    <path
        d="M 607.591 407.956 L 607.591 369.038 L 636.257 362.963 L 636.257 176.726 L 607.591 170.651 L 607.591 131.354 L 743.519 131.354 Q 776.362 131.354 800.472 141.795 Q 824.582 152.236 837.681 171.506 Q 850.78 190.775 850.78 217.163 Q 850.78 241.463 837.586 262.346 Q 824.392 283.229 801.421 295.853 Q 778.45 308.478 749.024 308.288 L 702.892 307.718 L 702.892 362.963 L 731.559 369.038 L 731.559 407.956 Z M 782.627 407.956 L 745.417 300.125 L 803.32 280.381 L 836.922 362.583 L 863.12 369.228 L 863.12 407.956 Z M 702.892 256.651 L 744.278 256.651 Q 763.642 256.651 774.084 247.633 Q 784.525 238.615 784.525 221.529 Q 784.525 203.874 773.894 193.148 Q 763.263 182.422 743.519 182.422 L 702.892 182.422 Z M 981.944 411.943 Q 951.759 411.943 929.263 398.938 Q 906.766 385.934 894.331 363.343 Q 881.896 340.751 881.896 312.275 L 881.896 305.251 Q 881.896 273.926 892.907 249.816 Q 903.918 225.706 925.181 212.132 Q 946.443 198.558 977.388 198.748 Q 1005.295 198.748 1024.564 209.474 Q 1043.833 220.201 1053.895 240.988 Q 1063.957 261.776 1063.957 292.151 L 1063.957 326.513 L 951 326.513 L 950.81 327.842 Q 952.329 337.524 957.359 345.023 Q 962.39 352.522 971.313 356.888 Q 980.236 361.254 993.335 361.254 Q 1006.244 361.254 1018.679 358.312 Q 1031.114 355.369 1044.972 348.915 L 1060.16 389.161 Q 1046.301 399.033 1026.368 405.488 Q 1006.434 411.943 981.944 411.943 Z M 951 285.317 L 1003.207 285.317 L 1003.207 280.381 Q 1003.207 269.37 1001.023 261.966 Q 998.84 254.562 993.525 250.765 Q 988.209 246.968 978.907 246.968 Q 968.845 246.968 962.865 251.81 Q 956.885 256.651 954.132 265.099 Q 951.379 273.547 950.24 284.368 Z M 1084.086 407.956 L 1084.086 369.038 L 1108.386 362.963 L 1108.386 247.728 L 1079.53 241.653 L 1079.53 202.545 L 1170.845 202.545 L 1172.933 229.883 Q 1182.995 215.075 1197.423 206.911 Q 1211.851 198.748 1230.836 198.748 Q 1250.01 198.748 1263.773 207.006 Q 1277.537 215.265 1284.561 232.161 Q 1293.864 216.214 1308.577 207.481 Q 1323.289 198.748 1343.223 198.748 Q 1373.029 198.748 1390.114 218.872 Q 1407.2 238.995 1407.2 280.761 L 1407.2 362.963 L 1431.5 369.038 L 1431.5 407.956 L 1321.201 407.956 L 1321.201 369.038 L 1340.755 362.963 L 1340.755 280.761 Q 1340.755 262.726 1335.155 256.271 Q 1329.554 249.816 1318.923 249.816 Q 1310.19 249.816 1303.166 253.138 Q 1296.142 256.461 1290.826 262.726 L 1290.826 362.963 L 1307.912 369.038 L 1307.912 407.956 L 1207.485 407.956 L 1207.485 369.038 L 1224.571 362.963 L 1224.571 280.761 Q 1224.571 262.726 1219.065 256.271 Q 1213.56 249.816 1202.549 249.816 Q 1194.006 249.816 1186.982 253.138 Q 1179.957 256.461 1174.642 262.915 L 1174.642 362.963 L 1194.196 369.038 L 1194.196 407.956 Z M 1514.654 411.943 Q 1484.849 411.943 1466.054 395.047 Q 1447.26 378.151 1447.26 350.054 Q 1447.26 330.879 1457.606 316.072 Q 1467.953 301.264 1488.74 292.816 Q 1509.528 284.368 1540.853 284.368 L 1562.305 284.368 L 1562.305 272.218 Q 1562.305 259.878 1555.281 251.24 Q 1548.256 242.602 1533.069 242.602 Q 1526.614 242.602 1521.014 244.216 Q 1515.413 245.829 1510.857 248.867 L 1506.301 275.065 L 1459.41 275.065 L 1458.46 217.922 Q 1475.926 210.139 1495.005 204.444 Q 1514.085 198.748 1537.625 198.748 Q 1579.581 198.748 1604.26 218.017 Q 1628.94 237.286 1628.94 272.977 L 1628.94 348.725 Q 1628.94 353.091 1629.035 357.268 Q 1629.13 361.444 1629.889 365.241 L 1652.101 369.038 L 1652.101 407.956 L 1574.265 407.956 Q 1571.797 404.539 1568.949 398.843 Q 1566.102 393.148 1564.963 387.453 Q 1555.66 399.033 1544.08 405.488 Q 1532.499 411.943 1514.654 411.943 Z M 1535.157 364.861 Q 1542.371 364.861 1549.68 361.919 Q 1556.989 358.976 1562.305 353.091 L 1562.305 323.476 L 1541.612 323.476 Q 1528.133 323.476 1520.824 329.361 Q 1513.515 335.246 1513.515 344.928 Q 1513.515 354.23 1519.59 359.546 Q 1525.665 364.861 1535.157 364.861 Z M 1672.97 407.956 L 1672.97 369.038 L 1696.89 362.963 L 1696.89 247.728 L 1668.413 241.653 L 1668.413 202.545 L 1759.728 202.545 L 1761.247 227.604 L 1761.627 232.73 Q 1768.461 215.265 1778.618 207.006 Q 1788.774 198.748 1803.962 198.748 Q 1808.138 198.748 1813.834 199.413 Q 1819.529 200.077 1825.414 201.786 L 1818.77 262.915 L 1790.293 261.586 Q 1780.421 261.207 1774.821 263.77 Q 1769.22 266.333 1763.525 272.218 L 1763.525 362.963 L 1787.445 369.038 L 1787.445 407.956 Z M 1821.048 407.956 L 1821.048 369.038 L 1845.348 362.963 L 1845.348 156.983 L 1816.492 150.908 L 1816.492 111.8 L 1911.604 111.8 L 1911.604 362.963 L 1931.158 369.038 L 1931.158 407.956 Z M 1951.091 407.956 L 1951.091 371.696 L 1963.621 367.329 L 1963.241 366.57 L 1934.195 324.615 L 1979.378 284.368 L 2037.091 362.204 L 2060.062 369.038 L 2060.062 407.956 Z M 1903.82 353.851 L 1869.269 321.957 L 1958.495 244.69 L 1958.495 244.501 L 1937.992 241.083 L 1937.992 202.545 L 2056.265 202.545 L 2056.265 241.653 L 2029.687 249.436 Z M 2169.995 411.943 Q 2139.81 411.943 2117.313 398.938 Q 2094.817 385.934 2082.382 363.343 Q 2069.947 340.751 2069.947 312.275 L 2069.947 305.251 Q 2069.947 273.926 2080.958 249.816 Q 2091.969 225.706 2113.232 212.132 Q 2134.494 198.558 2165.439 198.748 Q 2193.346 198.748 2212.615 209.474 Q 2231.884 220.201 2241.946 240.988 Q 2252.007 261.776 2252.007 292.151 L 2252.007 326.513 L 2139.05 326.513 L 2138.86 327.842 Q 2140.379 337.524 2145.41 345.023 Q 2150.441 352.522 2159.364 356.888 Q 2168.286 361.254 2181.385 361.254 Q 2194.295 361.254 2206.73 358.312 Q 2219.164 355.369 2233.023 348.915 L 2248.21 389.161 Q 2234.352 399.033 2214.418 405.488 Q 2194.485 411.943 2169.995 411.943 Z M 2139.05 285.317 L 2191.257 285.317 L 2191.257 280.381 Q 2191.257 269.37 2189.074 261.966 Q 2186.891 254.562 2181.575 250.765 Q 2176.26 246.968 2166.957 246.968 Q 2156.896 246.968 2150.916 251.81 Q 2144.935 256.651 2142.183 265.099 Q 2139.43 273.547 2138.291 284.368 Z M 2348.826 411.943 Q 2324.716 411.943 2307.345 399.223 Q 2289.974 386.504 2280.767 363.438 Q 2271.559 340.372 2271.559 309.617 L 2271.559 305.63 Q 2271.559 273.547 2280.862 249.531 Q 2290.164 225.516 2307.345 212.132 Q 2324.526 198.748 2348.066 198.748 Q 2364.393 198.748 2376.258 205.488 Q 2388.123 212.227 2397.046 224.377 L 2397.046 156.983 L 2368.19 150.908 L 2368.19 111.8 L 2397.046 111.8 L 2463.681 111.8 L 2463.681 362.963 L 2487.602 369.038 L 2487.602 407.956 L 2405.969 407.956 L 2401.033 382.517 Q 2391.73 396.945 2379.011 404.444 Q 2366.291 411.943 2348.826 411.943 Z M 2369.519 360.875 Q 2377.872 360.875 2385.086 357.647 Q 2392.3 354.42 2397.046 347.965 L 2397.046 265.763 Q 2392.3 257.979 2385.371 253.898 Q 2378.441 249.816 2369.898 249.816 Q 2358.508 249.816 2351.484 256.84 Q 2344.459 263.865 2341.327 276.394 Q 2338.194 288.924 2338.194 305.63 L 2338.194 309.617 Q 2338.194 334.107 2345.029 347.491 Q 2351.863 360.875 2369.519 360.875 Z"
        fill="currentColor" />

    <path
        d="M 1426.381 479.091 L 1426.381 530.218 L 1420.19 530.218 L 1420.19 479.091 Z M 1447.853 507.151 L 1447.853 530.218 L 1441.962 530.218 L 1441.962 491.873 L 1447.654 491.873 L 1447.654 497.864 L 1448.153 497.864 Q 1449.501 494.943 1452.247 493.158 Q 1454.993 491.373 1459.337 491.373 Q 1463.232 491.373 1466.152 492.959 Q 1469.073 494.544 1470.696 497.752 Q 1472.319 500.96 1472.319 505.853 L 1472.319 530.218 L 1466.427 530.218 L 1466.427 506.252 Q 1466.427 501.734 1464.08 499.2 Q 1461.734 496.666 1457.639 496.666 Q 1454.818 496.666 1452.609 497.889 Q 1450.4 499.112 1449.127 501.459 Q 1447.853 503.806 1447.853 507.151 Z M 1509.072 505.553 L 1509.072 511.045 L 1486.703 511.045 L 1486.703 505.553 Z M 1524.249 530.218 L 1524.249 479.091 L 1530.141 479.091 L 1530.141 497.964 L 1530.64 497.964 Q 1531.289 496.965 1532.45 495.405 Q 1533.611 493.845 1535.795 492.609 Q 1537.98 491.373 1541.724 491.373 Q 1546.567 491.373 1550.262 493.795 Q 1553.957 496.216 1556.029 500.66 Q 1558.101 505.104 1558.101 511.145 Q 1558.101 517.237 1556.029 521.693 Q 1553.957 526.149 1550.287 528.583 Q 1546.617 531.017 1541.824 531.017 Q 1538.129 531.017 1535.908 529.781 Q 1533.686 528.545 1532.487 526.96 Q 1531.289 525.375 1530.64 524.326 L 1529.941 524.326 L 1529.941 530.218 Z M 1530.041 511.045 Q 1530.041 515.389 1531.314 518.697 Q 1532.587 522.005 1535.034 523.865 Q 1537.48 525.724 1541.025 525.724 Q 1544.72 525.724 1547.204 523.765 Q 1549.688 521.805 1550.949 518.472 Q 1552.209 515.14 1552.209 511.045 Q 1552.209 507.001 1550.974 503.743 Q 1549.738 500.485 1547.254 498.576 Q 1544.77 496.666 1541.025 496.666 Q 1537.43 496.666 1534.984 498.476 Q 1532.537 500.286 1531.289 503.519 Q 1530.041 506.751 1530.041 511.045 Z M 1571.07 530.218 L 1571.07 491.873 L 1576.762 491.873 L 1576.762 497.664 L 1577.161 497.664 Q 1578.21 494.818 1580.956 493.046 Q 1583.702 491.273 1587.147 491.273 Q 1587.796 491.273 1588.77 491.298 Q 1589.743 491.323 1590.242 491.373 L 1590.242 497.365 Q 1589.943 497.29 1588.882 497.128 Q 1587.821 496.965 1586.648 496.965 Q 1583.852 496.965 1581.667 498.126 Q 1579.483 499.287 1578.222 501.322 Q 1576.961 503.356 1576.961 505.953 L 1576.961 530.218 Z M 1615.613 531.017 Q 1610.421 531.017 1606.514 528.545 Q 1602.607 526.074 1600.423 521.63 Q 1598.238 517.187 1598.238 511.245 Q 1598.238 505.254 1600.423 500.785 Q 1602.607 496.316 1606.514 493.845 Q 1610.421 491.373 1615.613 491.373 Q 1620.806 491.373 1624.713 493.845 Q 1628.62 496.316 1630.804 500.785 Q 1632.989 505.254 1632.989 511.245 Q 1632.989 517.187 1630.804 521.63 Q 1628.62 526.074 1624.713 528.545 Q 1620.806 531.017 1615.613 531.017 Z M 1615.613 525.724 Q 1619.558 525.724 1622.104 523.702 Q 1624.651 521.68 1625.874 518.385 Q 1627.097 515.09 1627.097 511.245 Q 1627.097 507.401 1625.874 504.08 Q 1624.651 500.76 1622.104 498.713 Q 1619.558 496.666 1615.613 496.666 Q 1611.669 496.666 1609.123 498.713 Q 1606.576 500.76 1605.353 504.08 Q 1604.13 507.401 1604.13 511.245 Q 1604.13 515.09 1605.353 518.385 Q 1606.576 521.68 1609.123 523.702 Q 1611.669 525.724 1615.613 525.724 Z M 1653.385 530.218 L 1641.701 491.873 L 1647.893 491.873 L 1656.181 521.231 L 1656.58 521.231 L 1664.769 491.873 L 1671.06 491.873 L 1679.148 521.131 L 1679.548 521.131 L 1687.836 491.873 L 1694.027 491.873 L 1682.344 530.218 L 1676.552 530.218 L 1668.164 500.76 L 1667.565 500.76 L 1659.177 530.218 Z M 1732.962 500.46 L 1727.669 501.958 Q 1727.17 500.635 1726.209 499.374 Q 1725.248 498.114 1723.6 497.29 Q 1721.952 496.466 1719.381 496.466 Q 1715.861 496.466 1713.527 498.076 Q 1711.192 499.687 1711.192 502.158 Q 1711.192 504.355 1712.79 505.628 Q 1714.388 506.901 1717.783 507.75 L 1723.475 509.148 Q 1728.618 510.396 1731.139 512.955 Q 1733.661 515.514 1733.661 519.533 Q 1733.661 522.829 1731.776 525.425 Q 1729.891 528.021 1726.521 529.519 Q 1723.15 531.017 1718.682 531.017 Q 1712.815 531.017 1708.971 528.471 Q 1705.126 525.924 1704.103 521.031 L 1709.695 519.633 Q 1710.493 522.729 1712.728 524.277 Q 1714.962 525.824 1718.582 525.824 Q 1722.701 525.824 1725.135 524.064 Q 1727.569 522.304 1727.569 519.833 Q 1727.569 517.836 1726.171 516.475 Q 1724.773 515.115 1721.877 514.441 L 1715.486 512.943 Q 1710.219 511.694 1707.76 509.061 Q 1705.301 506.427 1705.301 502.458 Q 1705.301 499.212 1707.136 496.716 Q 1708.971 494.219 1712.154 492.796 Q 1715.337 491.373 1719.381 491.373 Q 1725.073 491.373 1728.331 493.87 Q 1731.588 496.366 1732.962 500.46 Z M 1762.622 531.017 Q 1757.079 531.017 1753.073 528.558 Q 1749.066 526.099 1746.906 521.668 Q 1744.747 517.237 1744.747 511.345 Q 1744.747 505.453 1746.906 500.947 Q 1749.066 496.441 1752.948 493.907 Q 1756.83 491.373 1762.022 491.373 Q 1765.018 491.373 1767.939 492.372 Q 1770.86 493.37 1773.256 495.605 Q 1775.653 497.839 1777.076 501.509 Q 1778.499 505.179 1778.499 510.546 L 1778.499 513.043 L 1748.941 513.043 L 1748.941 507.95 L 1772.507 507.95 Q 1772.507 504.704 1771.222 502.158 Q 1769.936 499.612 1767.577 498.139 Q 1765.218 496.666 1762.022 496.666 Q 1758.502 496.666 1755.944 498.401 Q 1753.385 500.136 1752.012 502.907 Q 1750.639 505.678 1750.639 508.848 L 1750.639 512.244 Q 1750.639 516.587 1752.149 519.596 Q 1753.659 522.604 1756.355 524.164 Q 1759.052 525.724 1762.622 525.724 Q 1764.943 525.724 1766.828 525.063 Q 1768.713 524.401 1770.086 523.066 Q 1771.459 521.73 1772.208 519.733 L 1777.9 521.331 Q 1777.001 524.227 1774.879 526.411 Q 1772.757 528.595 1769.637 529.806 Q 1766.516 531.017 1762.622 531.017 Z M 1791.499 530.218 L 1791.499 491.873 L 1797.191 491.873 L 1797.191 497.664 L 1797.59 497.664 Q 1798.639 494.818 1801.385 493.046 Q 1804.131 491.273 1807.576 491.273 Q 1808.225 491.273 1809.199 491.298 Q 1810.172 491.323 1810.672 491.373 L 1810.672 497.365 Q 1810.372 497.29 1809.311 497.128 Q 1808.25 496.965 1807.077 496.965 Q 1804.281 496.965 1802.096 498.126 Q 1799.912 499.287 1798.651 501.322 Q 1797.391 503.356 1797.391 505.953 L 1797.391 530.218 Z M 1856.226 479.091 L 1863.615 479.091 L 1880.99 521.53 L 1881.59 521.53 L 1898.965 479.091 L 1906.354 479.091 L 1906.354 530.218 L 1900.563 530.218 L 1900.563 491.373 L 1900.063 491.373 L 1884.086 530.218 L 1878.494 530.218 L 1862.517 491.373 L 1862.017 491.373 L 1862.017 530.218 L 1856.226 530.218 Z M 1933.223 531.117 Q 1929.578 531.117 1926.608 529.731 Q 1923.637 528.346 1921.889 525.712 Q 1920.142 523.078 1920.142 519.334 Q 1920.142 516.038 1921.44 513.979 Q 1922.738 511.919 1924.91 510.746 Q 1927.082 509.572 1929.716 508.986 Q 1932.35 508.399 1935.021 508.05 Q 1938.516 507.6 1940.7 507.363 Q 1942.885 507.126 1943.896 506.552 Q 1944.907 505.978 1944.907 504.555 L 1944.907 504.355 Q 1944.907 500.66 1942.897 498.613 Q 1940.887 496.566 1936.818 496.566 Q 1932.599 496.566 1930.203 498.413 Q 1927.806 500.261 1926.832 502.358 L 1921.24 500.361 Q 1922.738 496.866 1925.247 494.906 Q 1927.756 492.946 1930.739 492.16 Q 1933.723 491.373 1936.618 491.373 Q 1938.466 491.373 1940.875 491.81 Q 1943.284 492.247 1945.543 493.595 Q 1947.803 494.943 1949.3 497.664 Q 1950.798 500.386 1950.798 504.954 L 1950.798 530.218 L 1944.907 530.218 L 1944.907 525.025 L 1944.607 525.025 Q 1944.008 526.274 1942.61 527.697 Q 1941.212 529.12 1938.89 530.118 Q 1936.569 531.117 1933.223 531.117 Z M 1934.122 525.824 Q 1937.617 525.824 1940.026 524.451 Q 1942.435 523.078 1943.671 520.906 Q 1944.907 518.734 1944.907 516.338 L 1944.907 510.945 Q 1944.532 511.395 1943.271 511.757 Q 1942.011 512.119 1940.376 512.381 Q 1938.74 512.643 1937.205 512.83 Q 1935.67 513.018 1934.721 513.142 Q 1932.424 513.442 1930.44 514.104 Q 1928.455 514.765 1927.244 516.076 Q 1926.034 517.386 1926.034 519.633 Q 1926.034 522.704 1928.318 524.264 Q 1930.602 525.824 1934.122 525.824 Z M 1965.588 530.218 L 1965.588 491.873 L 1971.28 491.873 L 1971.28 497.664 L 1971.679 497.664 Q 1972.728 494.818 1975.474 493.046 Q 1978.22 491.273 1981.665 491.273 Q 1982.314 491.273 1983.288 491.298 Q 1984.262 491.323 1984.761 491.373 L 1984.761 497.365 Q 1984.461 497.29 1983.4 497.128 Q 1982.339 496.965 1981.166 496.965 Q 1978.37 496.965 1976.186 498.126 Q 1974.001 499.287 1972.74 501.322 Q 1971.48 503.356 1971.48 505.953 L 1971.48 530.218 Z M 2001.245 516.238 L 2001.146 508.948 L 2002.344 508.948 L 2019.12 491.873 L 2026.41 491.873 L 2008.535 509.947 L 2008.036 509.947 Z M 1995.753 530.218 L 1995.753 479.091 L 2001.645 479.091 L 2001.645 530.218 Z M 2020.119 530.218 L 2005.14 511.245 L 2009.334 507.151 L 2027.608 530.218 Z M 2050.87 531.017 Q 2046.077 531.017 2042.407 528.583 Q 2038.738 526.149 2036.666 521.693 Q 2034.594 517.237 2034.594 511.145 Q 2034.594 505.104 2036.666 500.66 Q 2038.738 496.216 2042.432 493.795 Q 2046.127 491.373 2050.97 491.373 Q 2054.715 491.373 2056.899 492.609 Q 2059.084 493.845 2060.245 495.405 Q 2061.405 496.965 2062.054 497.964 L 2062.554 497.964 L 2062.554 479.091 L 2068.445 479.091 L 2068.445 530.218 L 2062.753 530.218 L 2062.753 524.326 L 2062.054 524.326 Q 2061.405 525.375 2060.207 526.96 Q 2059.009 528.545 2056.787 529.781 Q 2054.565 531.017 2050.87 531.017 Z M 2051.669 525.724 Q 2055.214 525.724 2057.661 523.865 Q 2060.107 522.005 2061.38 518.697 Q 2062.654 515.389 2062.654 511.045 Q 2062.654 506.751 2061.405 503.519 Q 2060.157 500.286 2057.711 498.476 Q 2055.264 496.666 2051.669 496.666 Q 2047.925 496.666 2045.441 498.576 Q 2042.957 500.485 2041.721 503.743 Q 2040.485 507.001 2040.485 511.045 Q 2040.485 515.14 2041.746 518.472 Q 2043.007 521.805 2045.491 523.765 Q 2047.975 525.724 2051.669 525.724 Z M 2099.615 531.017 Q 2094.422 531.017 2090.515 528.545 Q 2086.608 526.074 2084.424 521.63 Q 2082.239 517.187 2082.239 511.245 Q 2082.239 505.254 2084.424 500.785 Q 2086.608 496.316 2090.515 493.845 Q 2094.422 491.373 2099.615 491.373 Q 2104.807 491.373 2108.714 493.845 Q 2112.621 496.316 2114.806 500.785 Q 2116.99 505.254 2116.99 511.245 Q 2116.99 517.187 2114.806 521.63 Q 2112.621 526.074 2108.714 528.545 Q 2104.807 531.017 2099.615 531.017 Z M 2099.615 525.724 Q 2103.559 525.724 2106.105 523.702 Q 2108.652 521.68 2109.875 518.385 Q 2111.098 515.09 2111.098 511.245 Q 2111.098 507.401 2109.875 504.08 Q 2108.652 500.76 2106.105 498.713 Q 2103.559 496.666 2099.615 496.666 Q 2095.67 496.666 2093.124 498.713 Q 2090.578 500.76 2089.354 504.08 Q 2088.131 507.401 2088.131 511.245 Q 2088.131 515.09 2089.354 518.385 Q 2090.578 521.68 2093.124 523.702 Q 2095.67 525.724 2099.615 525.724 Z M 2137.36 530.218 L 2125.676 491.873 L 2131.867 491.873 L 2140.156 521.231 L 2140.555 521.231 L 2148.743 491.873 L 2155.034 491.873 L 2163.123 521.131 L 2163.522 521.131 L 2171.811 491.873 L 2178.002 491.873 L 2166.318 530.218 L 2160.527 530.218 L 2152.138 500.76 L 2151.539 500.76 L 2143.151 530.218 Z M 2195.667 507.151 L 2195.667 530.218 L 2189.775 530.218 L 2189.775 491.873 L 2195.467 491.873 L 2195.467 497.864 L 2195.966 497.864 Q 2197.314 494.943 2200.06 493.158 Q 2202.806 491.373 2207.15 491.373 Q 2211.045 491.373 2213.965 492.959 Q 2216.886 494.544 2218.509 497.752 Q 2220.132 500.96 2220.132 505.853 L 2220.132 530.218 L 2214.24 530.218 L 2214.24 506.252 Q 2214.24 501.734 2211.893 499.2 Q 2209.547 496.666 2205.453 496.666 Q 2202.632 496.666 2200.422 497.889 Q 2198.213 499.112 2196.94 501.459 Q 2195.667 503.806 2195.667 507.151 Z M 2284.782 531.017 Q 2279.24 531.017 2275.234 528.558 Q 2271.227 526.099 2269.067 521.668 Q 2266.908 517.237 2266.908 511.345 Q 2266.908 505.453 2269.067 500.947 Q 2271.227 496.441 2275.109 493.907 Q 2278.991 491.373 2284.183 491.373 Q 2287.179 491.373 2290.1 492.372 Q 2293.021 493.37 2295.417 495.605 Q 2297.814 497.839 2299.237 501.509 Q 2300.66 505.179 2300.66 510.546 L 2300.66 513.043 L 2271.102 513.043 L 2271.102 507.95 L 2294.668 507.95 Q 2294.668 504.704 2293.383 502.158 Q 2292.097 499.612 2289.738 498.139 Q 2287.379 496.666 2284.183 496.666 Q 2280.663 496.666 2278.104 498.401 Q 2275.546 500.136 2274.173 502.907 Q 2272.799 505.678 2272.799 508.848 L 2272.799 512.244 Q 2272.799 516.587 2274.31 519.596 Q 2275.82 522.604 2278.516 524.164 Q 2281.213 525.724 2284.782 525.724 Q 2287.104 525.724 2288.989 525.063 Q 2290.874 524.401 2292.247 523.066 Q 2293.62 521.73 2294.369 519.733 L 2300.061 521.331 Q 2299.162 524.227 2297.04 526.411 Q 2294.918 528.595 2291.797 529.806 Q 2288.677 531.017 2284.782 531.017 Z M 2328.112 531.017 Q 2323.319 531.017 2319.649 528.583 Q 2315.98 526.149 2313.908 521.693 Q 2311.836 517.237 2311.836 511.145 Q 2311.836 505.104 2313.908 500.66 Q 2315.98 496.216 2319.674 493.795 Q 2323.369 491.373 2328.212 491.373 Q 2331.957 491.373 2334.141 492.609 Q 2336.326 493.845 2337.487 495.405 Q 2338.647 496.965 2339.297 497.964 L 2339.796 497.964 L 2339.796 479.091 L 2345.687 479.091 L 2345.687 530.218 L 2339.996 530.218 L 2339.996 524.326 L 2339.297 524.326 Q 2338.647 525.375 2337.449 526.96 Q 2336.251 528.545 2334.029 529.781 Q 2331.807 531.017 2328.112 531.017 Z M 2328.911 525.724 Q 2332.456 525.724 2334.903 523.865 Q 2337.349 522.005 2338.623 518.697 Q 2339.896 515.389 2339.896 511.045 Q 2339.896 506.751 2338.647 503.519 Q 2337.399 500.286 2334.953 498.476 Q 2332.506 496.666 2328.911 496.666 Q 2325.167 496.666 2322.683 498.576 Q 2320.199 500.485 2318.963 503.743 Q 2317.727 507.001 2317.727 511.045 Q 2317.727 515.14 2318.988 518.472 Q 2320.249 521.805 2322.733 523.765 Q 2325.217 525.724 2328.911 525.724 Z M 2361.279 530.218 L 2361.279 491.873 L 2367.171 491.873 L 2367.171 530.218 Z M 2364.275 485.482 Q 2362.552 485.482 2361.316 484.308 Q 2360.081 483.135 2360.081 481.487 Q 2360.081 479.84 2361.316 478.666 Q 2362.552 477.493 2364.275 477.493 Q 2365.997 477.493 2367.233 478.666 Q 2368.469 479.84 2368.469 481.487 Q 2368.469 483.135 2367.233 484.308 Q 2365.997 485.482 2364.275 485.482 Z M 2398.634 491.873 L 2398.634 496.866 L 2378.762 496.866 L 2378.762 491.873 Z M 2384.554 482.686 L 2390.446 482.686 L 2390.446 519.234 Q 2390.446 521.73 2391.182 522.966 Q 2391.919 524.202 2393.079 524.614 Q 2394.24 525.025 2395.538 525.025 Q 2396.512 525.025 2397.136 524.913 Q 2397.76 524.801 2398.135 524.726 L 2399.333 530.018 Q 2398.734 530.243 2397.66 530.48 Q 2396.587 530.717 2394.939 530.717 Q 2392.443 530.717 2390.059 529.644 Q 2387.675 528.57 2386.114 526.374 Q 2384.554 524.177 2384.554 520.831 Z M 2426.688 531.017 Q 2421.496 531.017 2417.589 528.545 Q 2413.682 526.074 2411.497 521.63 Q 2409.313 517.187 2409.313 511.245 Q 2409.313 505.254 2411.497 500.785 Q 2413.682 496.316 2417.589 493.845 Q 2421.496 491.373 2426.688 491.373 Q 2431.881 491.373 2435.788 493.845 Q 2439.695 496.316 2441.879 500.785 Q 2444.063 505.254 2444.063 511.245 Q 2444.063 517.187 2441.879 521.63 Q 2439.695 526.074 2435.788 528.545 Q 2431.881 531.017 2426.688 531.017 Z M 2426.688 525.724 Q 2430.633 525.724 2433.179 523.702 Q 2435.725 521.68 2436.949 518.385 Q 2438.172 515.09 2438.172 511.245 Q 2438.172 507.401 2436.949 504.08 Q 2435.725 500.76 2433.179 498.713 Q 2430.633 496.666 2426.688 496.666 Q 2422.744 496.666 2420.197 498.713 Q 2417.651 500.76 2416.428 504.08 Q 2415.205 507.401 2415.205 511.245 Q 2415.205 515.09 2416.428 518.385 Q 2417.651 521.68 2420.197 523.702 Q 2422.744 525.724 2426.688 525.724 Z M 2457.051 530.218 L 2457.051 491.873 L 2462.743 491.873 L 2462.743 497.664 L 2463.142 497.664 Q 2464.191 494.818 2466.937 493.046 Q 2469.683 491.273 2473.128 491.273 Q 2473.777 491.273 2474.751 491.298 Q 2475.724 491.323 2476.224 491.373 L 2476.224 497.365 Q 2475.924 497.29 2474.863 497.128 Q 2473.802 496.965 2472.629 496.965 Q 2469.833 496.965 2467.648 498.126 Q 2465.464 499.287 2464.203 501.322 Q 2462.942 503.356 2462.942 505.953 L 2462.942 530.218 Z"
        fill="currentColor" />
</svg>